{
  "asset": {
    "version": "2.0",
    "generator": "THREE.GLTFExporter r180"
  },
  "scenes": [
    {
      "name": "Scene",
      "nodes": [
        0
      ]
    }
  ],
  "scene": 0,
  "nodes": [
    {
      "name": "GROSSE AVANCEMENT.glb",
      "children": [
        1,
        2,
        3,
        4,
        5,
        6,
        7,
        8,
        9,
        10,
        11,
        12,
        13,
        14,
        15,
        16,
        17,
        18,
        19,
        20,
        23,
        24,
        25,
        28,
        29,
        30,
        31,
        32,
        33,
        34,
        35,
        36,
        37,
        38,
        39
      ]
    },
    {
      "matrix": [
        0.020713508129119873,
        0,
        0,
        0,
        0,
        0.5099687576293945,
        0,
        0,
        0,
        0,
        0.3734097480773926,
        0,
        0.9764290452003479,
        0.8772110939025879,
        -1.7896509170532227,
        1
      ],
      "name": "Cube014",
      "extras": {
        "name": "Cube.014"
      },
      "mesh": 0
    },
    {
      "matrix": [
        0.020713508129119873,
        0,
        0,
        0,
        0,
        0.5099687576293945,
        0,
        0,
        0,
        0,
        0.3734097480773926,
        0,
        0.9764290452003479,
        0.8772111535072327,
        0,
        1
      ],
      "name": "Cube037",
      "extras": {
        "name": "Cube.037"
      },
      "mesh": 1
    },
    {
      "matrix": [
        0.020713508129119873,
        0,
        0,
        0,
        0,
        0.5099687576293945,
        0,
        0,
        0,
        0,
        0.3734097480773926,
        0,
        0.9764290452003479,
        0.8772111535072327,
        1.7896509170532227,
        1
      ],
      "name": "Cube038",
      "extras": {
        "name": "Cube.038"
      },
      "mesh": 2
    },
    {
      "matrix": [
        0.020713508129119873,
        0,
        0,
        0,
        0,
        0.5099687576293945,
        0,
        0,
        0,
        0,
        0.24087607860565186,
        0,
        -0.9334090948104858,
        0.23155441880226135,
        -0.7033712267875671,
        1
      ],
      "name": "Cube039",
      "extras": {
        "name": "Cube.039"
      },
      "mesh": 3
    },
    {
      "matrix": [
        0.020713508129119873,
        0,
        0,
        0,
        0,
        0.5099687576293945,
        0,
        0,
        0,
        0,
        0.2595202624797821,
        0,
        -0.9306397438049316,
        0.23155441880226135,
        0.621468722820282,
        1
      ],
      "name": "Cube040",
      "extras": {
        "name": "Cube.040"
      },
      "mesh": 4
    },
    {
      "matrix": [
        0.020713508129119873,
        0,
        0,
        0,
        0,
        0.5099687576293945,
        0,
        0,
        0,
        0,
        0.21679989993572235,
        0,
        -0.929256796836853,
        0.23155441880226135,
        1.8668094873428345,
        1
      ],
      "name": "Cube041",
      "extras": {
        "name": "Cube.041"
      },
      "mesh": 5
    },
    {
      "matrix": [
        0.15853571891784668,
        0,
        0,
        0,
        0,
        0.15498819947242737,
        0,
        0,
        0,
        0,
        0.39610034227371216,
        0,
        0.03363373875617981,
        1.683211326599121,
        -0.23002612590789795,
        1
      ],
      "name": "Cube043",
      "extras": {
        "name": "Cube.043"
      },
      "mesh": 6
    },
    {
      "matrix": [
        0.19574826955795288,
        0,
        0,
        0,
        0,
        0.19574826955795288,
        0,
        0,
        0,
        0,
        0.19574826955795288,
        0,
        0.037353068590164185,
        0.4251343011856079,
        -0.23901331424713135,
        1
      ],
      "name": "Cube044",
      "extras": {
        "name": "Cube.044"
      },
      "mesh": 7
    },
    {
      "matrix": [
        1,
        0,
        0,
        0,
        0,
        -1.3435885648505064e-7,
        -1.0000001343588565,
        0,
        0,
        1.0000001343588565,
        -1.3435885648505064e-7,
        0,
        3.5195020938113624,
        2.570676803588867,
        -1.7965791225230974,
        1
      ],
      "name": "Point",
      "extras": {
        "name": "Point"
      },
      "extensions": {
        "KHR_lights_punctual": {
          "light": 0
        }
      }
    },
    {
      "matrix": [
        1,
        0,
        0,
        0,
        0,
        -1.3435885648505064e-7,
        -1.0000001343588565,
        0,
        0,
        1.0000001343588565,
        -1.3435885648505064e-7,
        0,
        2.843629837036133,
        2.570676803588867,
        3.043001413345337,
        1
      ],
      "name": "Point001",
      "extras": {
        "name": "Point.001"
      },
      "extensions": {
        "KHR_lights_punctual": {
          "light": 1
        }
      }
    },
    {
      "matrix": [
        1,
        0,
        0,
        0,
        0,
        -1.3435885648505064e-7,
        -1.0000001343588565,
        0,
        0,
        1.0000001343588565,
        -1.3435885648505064e-7,
        0,
        -0.10407770660780669,
        2.570676803588867,
        3.043001413345337,
        1
      ],
      "name": "Point002",
      "extras": {
        "name": "Point.002"
      },
      "extensions": {
        "KHR_lights_punctual": {
          "light": 2
        }
      }
    },
    {
      "matrix": [
        1,
        0,
        0,
        0,
        0,
        -1.3435885648505064e-7,
        -1.0000001343588565,
        0,
        0,
        1.0000001343588565,
        -1.3435885648505064e-7,
        0,
        -1.3578124046325684,
        5.264215475313716,
        0.3002767562866211,
        1
      ],
      "name": "Point003",
      "extras": {
        "name": "Point.003"
      },
      "extensions": {
        "KHR_lights_punctual": {
          "light": 3
        }
      }
    },
    {
      "matrix": [
        -0.5889218673652081,
        0.010736616691719547,
        -0.8081186724840066,
        0,
        -0.8081880664646697,
        -0.005640768512286343,
        0.5888974865789649,
        0,
        0.001764363737073893,
        0.9999264600644082,
        0.011999162437575706,
        0,
        0,
        3.088578462600708,
        -0.026331404224038124,
        1
      ],
      "name": "Light",
      "extras": {
        "name": "Light"
      }
    },
    {
      "matrix": [
        0.16496089536234815,
        -0.007551338859007425,
        -0.9862712001689437,
        0,
        -0.08231257151272058,
        0.9963768606549743,
        -0.02139607726432717,
        0,
        0.9828593712084223,
        0.08471203475760833,
        0.1637416489321214,
        0,
        9.048,
        2.315,
        2.76,
        1
      ],
      "name": "Camera",
      "extras": {
        "name": "Camera"
      },
      "camera": 0
    },
    {
      "matrix": [
        0.06530830799019616,
        0,
        -0.26728447136943956,
        0,
        0,
        0.1843489110469818,
        0,
        0,
        0.26728447136943956,
        0,
        0.06530830799019616,
        0,
        -0.4337184429168701,
        0.36189374327659607,
        1.9719330072402954,
        1
      ],
      "name": "Cube018",
      "extras": {
        "name": "Cube.018"
      },
      "mesh": 8
    },
    {
      "matrix": [
        -0.5889218673652081,
        0.010736616691719547,
        -0.8081186724840066,
        0,
        -0.8081880664646697,
        -0.005640768512286343,
        0.5888974865789649,
        0,
        0.001764363737073893,
        0.9999264600644082,
        0.011999162437575706,
        0,
        0,
        2.7692415259385488,
        -0.026331404224038124,
        1
      ],
      "name": "Light001",
      "extras": {
        "name": "Light.001"
      },
      "extensions": {
        "KHR_lights_punctual": {
          "light": 4
        }
      }
    },
    {
      "matrix": [
        1,
        0,
        0,
        0,
        0,
        1,
        0,
        0,
        0,
        0,
        1,
        0,
        1.3673124313354492,
        0.5977127552032471,
        0,
        1
      ],
      "name": "Cube003",
      "extras": {
        "name": "Cube.003"
      },
      "mesh": 9
    },
    {
      "matrix": [
        1,
        0,
        0,
        0,
        0,
        1,
        0,
        0,
        0,
        0,
        1,
        0,
        -1.3330492973327637,
        0.5977126955986023,
        0.5974167585372925,
        1
      ],
      "name": "Cube004",
      "extras": {
        "name": "Cube.004"
      },
      "mesh": 10
    },
    {
      "matrix": [
        1,
        0,
        0,
        0,
        0,
        1,
        0,
        0,
        0,
        0,
        1,
        0,
        -1.493635654449463,
        0.5977127552032471,
        2.5597944259643555,
        1
      ],
      "name": "Cube019",
      "extras": {
        "name": "Cube.019"
      },
      "mesh": 11
    },
    {
      "matrix": [
        -0.0408208891749382,
        0,
        0,
        0,
        0,
        0.6154707670211792,
        0,
        0,
        0,
        0,
        1,
        0,
        -1.6772441864013672,
        2.3781886100769043,
        1.1375830173492432,
        1
      ],
      "name": "Cube005",
      "extras": {
        "name": "Cube.005"
      },
      "children": [
        21,
        22
      ]
    },
    {
      "name": "Cube006_1",
      "mesh": 12
    },
    {
      "name": "Cube006_2",
      "mesh": 13
    },
    {
      "matrix": [
        0.009022152051329613,
        0,
        0,
        0,
        0,
        0.3147444725036621,
        0,
        0,
        0,
        0,
        0.1965065747499466,
        0,
        1.772881269454956,
        0.76185142993927,
        -1.9082813262939453,
        1
      ],
      "name": "Cube017",
      "extras": {
        "name": "Cube.017"
      },
      "mesh": 14
    },
    {
      "matrix": [
        0.19306379556655884,
        0,
        0,
        0,
        0,
        0.13871824741363525,
        0,
        0,
        0,
        0,
        0.2114345282316208,
        0,
        1.367603063583374,
        1.2365303039550781,
        -1.2678024768829346,
        1
      ],
      "name": "Cube009",
      "extras": {
        "name": "Cube.009"
      },
      "mesh": 15
    },
    {
      "matrix": [
        0.38253137469291687,
        0,
        0,
        0,
        0,
        0.34621989727020264,
        0,
        0,
        0,
        0,
        0.27792131900787354,
        0,
        0.07413262128829956,
        1.6693739891052246,
        -2.4504759311676025,
        1
      ],
      "name": "Cube010",
      "extras": {
        "name": "Cube.010"
      },
      "children": [
        26,
        27
      ]
    },
    {
      "name": "Cube013_1",
      "mesh": 16
    },
    {
      "name": "Cube013_2",
      "mesh": 17
    },
    {
      "matrix": [
        0.18233434855937958,
        0,
        0,
        0,
        0,
        -2.7167047850980047e-8,
        0.20219769810363233,
        0,
        0,
        -0.25656891336138504,
        -3.447230117718876e-8,
        0,
        1.4232268333435059,
        1.8983982801437378,
        -2.6046128273010254,
        1
      ],
      "name": "Cylinder",
      "extras": {
        "name": "Cylinder"
      },
      "mesh": 18
    },
    {
      "matrix": [
        0.07050478458404541,
        0,
        0,
        0,
        0,
        0.21280109882354736,
        0,
        0,
        0,
        0,
        0.07031351327896118,
        0,
        -1.3126637935638428,
        0.5977127552032471,
        2.7547900676727295,
        1
      ],
      "name": "Cube006",
      "extras": {
        "name": "Cube.006"
      },
      "mesh": 19
    },
    {
      "matrix": [
        0.07050478458404541,
        0,
        0,
        0,
        0,
        0.21280109882354736,
        0,
        0,
        0,
        0,
        0.07031351327896118,
        0,
        1.334970235824585,
        0.5977127552032471,
        2.7547903060913086,
        1
      ],
      "name": "Cube007",
      "extras": {
        "name": "Cube.007"
      },
      "mesh": 20
    },
    {
      "matrix": [
        0.07050478458404541,
        0,
        0,
        0,
        0,
        0.21280109882354736,
        0,
        0,
        0,
        0,
        0.07031351327896118,
        0,
        0.011153221130371094,
        0.5977127552032471,
        2.7547903060913086,
        1
      ],
      "name": "Cube008",
      "extras": {
        "name": "Cube.008"
      },
      "mesh": 21
    },
    {
      "matrix": [
        0.06114529073238373,
        0,
        0,
        0,
        0,
        0.6166492700576782,
        0,
        0,
        0,
        0,
        0.6166492700576782,
        0,
        -1.7824493646621704,
        1.3895766735076904,
        -2.000253915786743,
        1
      ],
      "name": "Cube011",
      "extras": {
        "name": "Cube.011"
      },
      "mesh": 22
    },
    {
      "matrix": [
        0.06114529073238373,
        0,
        0,
        0,
        0,
        0.6166492700576782,
        0,
        0,
        0,
        0,
        0.6166492700576782,
        0,
        -1.6747444868087769,
        0.9852370619773865,
        -2.000253915786743,
        1
      ],
      "name": "Cube012",
      "extras": {
        "name": "Cube.012"
      }
    },
    {
      "matrix": [
        0.06114529073238373,
        0,
        0,
        0,
        0,
        0.6166492700576782,
        0,
        0,
        0,
        0,
        0.6166492700576782,
        0,
        -1.7824493646621704,
        1.3895766735076904,
        -2.000253915786743,
        1
      ],
      "name": "Cube013",
      "extras": {
        "name": "Cube.013"
      },
      "mesh": 23
    },
    {
      "matrix": [
        4.767564296722412,
        0,
        0,
        0,
        0,
        4.767564296722412,
        0,
        0,
        0,
        0,
        4.767564296722412,
        0,
        0,
        0,
        0,
        1
      ],
      "name": "Cube",
      "extras": {
        "name": "Cube"
      },
      "mesh": 24
    },
    {
      "matrix": [
        8.982829093933105,
        0,
        0,
        0,
        0,
        8.982829093933105,
        0,
        0,
        0,
        0,
        13.46434497833252,
        0,
        -0.3175249397754669,
        2.2094979286193848,
        0.250863254070282,
        1
      ],
      "name": "Cube001",
      "extras": {
        "name": "Cube.001"
      },
      "mesh": 25
    },
    {
      "matrix": [
        0.3181030750274658,
        0,
        0,
        0,
        0,
        0.3181030750274658,
        0,
        0,
        0,
        0,
        1.3006846904754639,
        0,
        1.8841547966003418,
        3.5753753185272217,
        0,
        1
      ],
      "name": "Cube002",
      "extras": {
        "name": "Cube.002"
      },
      "mesh": 26
    },
    {
      "matrix": [
        1,
        0,
        0,
        0,
        0,
        1,
        0,
        0,
        0,
        0,
        1,
        0,
        -2.882913589477539,
        1.0816986560821533,
        1.8241560459136963,
        1
      ],
      "name": "Cube036",
      "extras": {
        "name": "Cube.036"
      },
      "mesh": 27
    },
    {
      "matrix": [
        8.982829093933105,
        0,
        0,
        0,
        0,
        8.982829093933105,
        0,
        0,
        0,
        0,
        13.46434497833252,
        0,
        -0.3175249397754669,
        2.137474536895752,
        0.22453181445598602,
        1
      ],
      "name": "Cube042",
      "extras": {
        "name": "Cube.042"
      },
      "mesh": 28
    }
  ],
  "bufferViews": [
    {
      "buffer": 0,
      "byteOffset": 0,
      "byteLength": 1056,
      "target": 34962,
      "byteStride": 12
    },
    {
      "buffer": 0,
      "byteOffset": 1056,
      "byteLength": 1056,
      "target": 34962,
      "byteStride": 12
    },
    {
      "buffer": 0,
      "byteOffset": 2112,
      "byteLength": 704,
      "target": 34962,
      "byteStride": 8
    },
    {
      "buffer": 0,
      "byteOffset": 2816,
      "byteLength": 264,
      "target": 34963
    },
    {
      "buffer": 0,
      "byteOffset": 3080,
      "byteLength": 1056,
      "target": 34962,
      "byteStride": 12
    },
    {
      "buffer": 0,
      "byteOffset": 4136,
      "byteLength": 1056,
      "target": 34962,
      "byteStride": 12
    },
    {
      "buffer": 0,
      "byteOffset": 5192,
      "byteLength": 704,
      "target": 34962,
      "byteStride": 8
    },
    {
      "buffer": 0,
      "byteOffset": 5896,
      "byteLength": 1056,
      "target": 34962,
      "byteStride": 12
    },
    {
      "buffer": 0,
      "byteOffset": 6952,
      "byteLength": 1056,
      "target": 34962,
      "byteStride": 12
    },
    {
      "buffer": 0,
      "byteOffset": 8008,
      "byteLength": 704,
      "target": 34962,
      "byteStride": 8
    },
    {
      "buffer": 0,
      "byteOffset": 8712,
      "byteLength": 2304,
      "target": 34962,
      "byteStride": 12
    },
    {
      "buffer": 0,
      "byteOffset": 11016,
      "byteLength": 2304,
      "target": 34962,
      "byteStride": 12
    },
    {
      "buffer": 0,
      "byteOffset": 13320,
      "byteLength": 1536,
      "target": 34962,
      "byteStride": 8
    },
    {
      "buffer": 0,
      "byteOffset": 14856,
      "byteLength": 576,
      "target": 34963
    },
    {
      "buffer": 0,
      "byteOffset": 15432,
      "byteLength": 2304,
      "target": 34962,
      "byteStride": 12
    },
    {
      "buffer": 0,
      "byteOffset": 17736,
      "byteLength": 2304,
      "target": 34962,
      "byteStride": 12
    },
    {
      "buffer": 0,
      "byteOffset": 20040,
      "byteLength": 1536,
      "target": 34962,
      "byteStride": 8
    },
    {
      "buffer": 0,
      "byteOffset": 21576,
      "byteLength": 2304,
      "target": 34962,
      "byteStride": 12
    },
    {
      "buffer": 0,
      "byteOffset": 23880,
      "byteLength": 2304,
      "target": 34962,
      "byteStride": 12
    },
    {
      "buffer": 0,
      "byteOffset": 26184,
      "byteLength": 1536,
      "target": 34962,
      "byteStride": 8
    },
    {
      "buffer": 0,
      "byteOffset": 27720,
      "byteLength": 40740,
      "target": 34962,
      "byteStride": 12
    },
    {
      "buffer": 0,
      "byteOffset": 68460,
      "byteLength": 40740,
      "target": 34962,
      "byteStride": 12
    },
    {
      "buffer": 0,
      "byteOffset": 109200,
      "byteLength": 27160,
      "target": 34962,
      "byteStride": 8
    },
    {
      "buffer": 0,
      "byteOffset": 136360,
      "byteLength": 16308,
      "target": 34963
    },
    {
      "buffer": 0,
      "byteOffset": 152668,
      "byteLength": 23328,
      "target": 34962,
      "byteStride": 12
    },
    {
      "buffer": 0,
      "byteOffset": 175996,
      "byteLength": 23328,
      "target": 34962,
      "byteStride": 12
    },
    {
      "buffer": 0,
      "byteOffset": 199324,
      "byteLength": 15552,
      "target": 34962,
      "byteStride": 8
    },
    {
      "buffer": 0,
      "byteOffset": 214876,
      "byteLength": 11496,
      "target": 34963
    },
    {
      "buffer": 0,
      "byteOffset": 226372,
      "byteLength": 1152,
      "target": 34962,
      "byteStride": 12
    },
    {
      "buffer": 0,
      "byteOffset": 227524,
      "byteLength": 1152,
      "target": 34962,
      "byteStride": 12
    },
    {
      "buffer": 0,
      "byteOffset": 228676,
      "byteLength": 768,
      "target": 34962,
      "byteStride": 8
    },
    {
      "buffer": 0,
      "byteOffset": 229444,
      "byteLength": 312,
      "target": 34963
    },
    {
      "buffer": 0,
      "byteOffset": 229756,
      "byteLength": 2352,
      "target": 34962,
      "byteStride": 12
    },
    {
      "buffer": 0,
      "byteOffset": 232108,
      "byteLength": 2352,
      "target": 34962,
      "byteStride": 12
    },
    {
      "buffer": 0,
      "byteOffset": 234460,
      "byteLength": 1568,
      "target": 34962,
      "byteStride": 8
    },
    {
      "buffer": 0,
      "byteOffset": 236028,
      "byteLength": 840,
      "target": 34963
    },
    {
      "buffer": 0,
      "byteOffset": 236868,
      "byteLength": 4704,
      "target": 34962,
      "byteStride": 12
    },
    {
      "buffer": 0,
      "byteOffset": 241572,
      "byteLength": 4704,
      "target": 34962,
      "byteStride": 12
    },
    {
      "buffer": 0,
      "byteOffset": 246276,
      "byteLength": 3136,
      "target": 34962,
      "byteStride": 8
    },
    {
      "buffer": 0,
      "byteOffset": 249412,
      "byteLength": 1848,
      "target": 34963
    },
    {
      "buffer": 0,
      "byteOffset": 251260,
      "byteLength": 288,
      "target": 34962,
      "byteStride": 12
    },
    {
      "buffer": 0,
      "byteOffset": 251548,
      "byteLength": 288,
      "target": 34962,
      "byteStride": 12
    },
    {
      "buffer": 0,
      "byteOffset": 251836,
      "byteLength": 192,
      "target": 34962,
      "byteStride": 8
    },
    {
      "buffer": 0,
      "byteOffset": 252028,
      "byteLength": 72,
      "target": 34963
    },
    {
      "buffer": 0,
      "byteOffset": 252100,
      "byteLength": 528,
      "target": 34962,
      "byteStride": 12
    },
    {
      "buffer": 0,
      "byteOffset": 252628,
      "byteLength": 528,
      "target": 34962,
      "byteStride": 12
    },
    {
      "buffer": 0,
      "byteOffset": 253156,
      "byteLength": 352,
      "target": 34962,
      "byteStride": 8
    },
    {
      "buffer": 0,
      "byteOffset": 253508,
      "byteLength": 156,
      "target": 34963
    },
    {
      "buffer": 0,
      "byteOffset": 253664,
      "byteLength": 48,
      "target": 34962,
      "byteStride": 12
    },
    {
      "buffer": 0,
      "byteOffset": 253712,
      "byteLength": 48,
      "target": 34962,
      "byteStride": 12
    },
    {
      "buffer": 0,
      "byteOffset": 253760,
      "byteLength": 32,
      "target": 34962,
      "byteStride": 8
    },
    {
      "buffer": 0,
      "byteOffset": 253792,
      "byteLength": 12,
      "target": 34963
    },
    {
      "buffer": 0,
      "byteOffset": 253804,
      "byteLength": 6720,
      "target": 34962,
      "byteStride": 12
    },
    {
      "buffer": 0,
      "byteOffset": 260524,
      "byteLength": 6720,
      "target": 34962,
      "byteStride": 12
    },
    {
      "buffer": 0,
      "byteOffset": 267244,
      "byteLength": 4480,
      "target": 34962,
      "byteStride": 8
    },
    {
      "buffer": 0,
      "byteOffset": 271724,
      "byteLength": 2472,
      "target": 34963
    },
    {
      "buffer": 0,
      "byteOffset": 274196,
      "byteLength": 7896,
      "target": 34962,
      "byteStride": 12
    },
    {
      "buffer": 0,
      "byteOffset": 282092,
      "byteLength": 7896,
      "target": 34962,
      "byteStride": 12
    },
    {
      "buffer": 0,
      "byteOffset": 289988,
      "byteLength": 5264,
      "target": 34962,
      "byteStride": 8
    },
    {
      "buffer": 0,
      "byteOffset": 295252,
      "byteLength": 2456,
      "target": 34963
    },
    {
      "buffer": 0,
      "byteOffset": 297708,
      "byteLength": 792,
      "target": 34962,
      "byteStride": 12
    },
    {
      "buffer": 0,
      "byteOffset": 298500,
      "byteLength": 792,
      "target": 34962,
      "byteStride": 12
    },
    {
      "buffer": 0,
      "byteOffset": 299292,
      "byteLength": 528,
      "target": 34962,
      "byteStride": 8
    },
    {
      "buffer": 0,
      "byteOffset": 299820,
      "byteLength": 252,
      "target": 34963
    },
    {
      "buffer": 0,
      "byteOffset": 300072,
      "byteLength": 48,
      "target": 34962,
      "byteStride": 12
    },
    {
      "buffer": 0,
      "byteOffset": 300120,
      "byteLength": 48,
      "target": 34962,
      "byteStride": 12
    },
    {
      "buffer": 0,
      "byteOffset": 300168,
      "byteLength": 32,
      "target": 34962,
      "byteStride": 8
    },
    {
      "buffer": 0,
      "byteOffset": 300200,
      "byteLength": 12,
      "target": 34963
    },
    {
      "buffer": 0,
      "byteOffset": 300212,
      "byteLength": 1560,
      "target": 34962,
      "byteStride": 12
    },
    {
      "buffer": 0,
      "byteOffset": 301772,
      "byteLength": 1560,
      "target": 34962,
      "byteStride": 12
    },
    {
      "buffer": 0,
      "byteOffset": 303332,
      "byteLength": 1040,
      "target": 34962,
      "byteStride": 8
    },
    {
      "buffer": 0,
      "byteOffset": 304372,
      "byteLength": 744,
      "target": 34963
    },
    {
      "buffer": 0,
      "byteOffset": 305116,
      "byteLength": 576,
      "target": 34962,
      "byteStride": 12
    },
    {
      "buffer": 0,
      "byteOffset": 305692,
      "byteLength": 576,
      "target": 34962,
      "byteStride": 12
    },
    {
      "buffer": 0,
      "byteOffset": 306268,
      "byteLength": 384,
      "target": 34962,
      "byteStride": 8
    },
    {
      "buffer": 0,
      "byteOffset": 306652,
      "byteLength": 168,
      "target": 34963
    },
    {
      "buffer": 0,
      "byteOffset": 306820,
      "byteLength": 576,
      "target": 34962,
      "byteStride": 12
    },
    {
      "buffer": 0,
      "byteOffset": 307396,
      "byteLength": 576,
      "target": 34962,
      "byteStride": 12
    },
    {
      "buffer": 0,
      "byteOffset": 307972,
      "byteLength": 384,
      "target": 34962,
      "byteStride": 8
    },
    {
      "buffer": 0,
      "byteOffset": 308356,
      "byteLength": 168,
      "target": 34963
    },
    {
      "buffer": 0,
      "byteOffset": 308524,
      "byteLength": 288,
      "target": 34962,
      "byteStride": 12
    },
    {
      "buffer": 0,
      "byteOffset": 308812,
      "byteLength": 288,
      "target": 34962,
      "byteStride": 12
    },
    {
      "buffer": 0,
      "byteOffset": 309100,
      "byteLength": 192,
      "target": 34962,
      "byteStride": 8
    },
    {
      "buffer": 0,
      "byteOffset": 309292,
      "byteLength": 72,
      "target": 34963
    },
    {
      "buffer": 0,
      "byteOffset": 309364,
      "byteLength": 576,
      "target": 34962,
      "byteStride": 12
    },
    {
      "buffer": 0,
      "byteOffset": 309940,
      "byteLength": 576,
      "target": 34962,
      "byteStride": 12
    },
    {
      "buffer": 0,
      "byteOffset": 310516,
      "byteLength": 384,
      "target": 34962,
      "byteStride": 8
    },
    {
      "buffer": 0,
      "byteOffset": 310900,
      "byteLength": 192,
      "target": 34963
    },
    {
      "buffer": 0,
      "byteOffset": 311092,
      "byteLength": 288,
      "target": 34962,
      "byteStride": 12
    },
    {
      "buffer": 0,
      "byteOffset": 311380,
      "byteLength": 288,
      "target": 34962,
      "byteStride": 12
    },
    {
      "buffer": 0,
      "byteOffset": 311668,
      "byteLength": 192,
      "target": 34962,
      "byteStride": 8
    },
    {
      "buffer": 0,
      "byteOffset": 311860,
      "byteLength": 288,
      "target": 34962,
      "byteStride": 12
    },
    {
      "buffer": 0,
      "byteOffset": 312148,
      "byteLength": 288,
      "target": 34962,
      "byteStride": 12
    },
    {
      "buffer": 0,
      "byteOffset": 312436,
      "byteLength": 192,
      "target": 34962,
      "byteStride": 8
    },
    {
      "buffer": 0,
      "byteOffset": 312628,
      "byteLength": 72,
      "target": 34963
    },
    {
      "buffer": 0,
      "byteOffset": 312700,
      "byteLength": 936,
      "target": 34962,
      "byteStride": 12
    },
    {
      "buffer": 0,
      "byteOffset": 313636,
      "byteLength": 936,
      "target": 34962,
      "byteStride": 12
    },
    {
      "buffer": 0,
      "byteOffset": 314572,
      "byteLength": 624,
      "target": 34962,
      "byteStride": 8
    },
    {
      "buffer": 0,
      "byteOffset": 315196,
      "byteLength": 300,
      "target": 34963
    },
    {
      "buffer": 0,
      "byteOffset": 315496,
      "byteLength": 288,
      "target": 34962,
      "byteStride": 12
    },
    {
      "buffer": 0,
      "byteOffset": 315784,
      "byteLength": 288,
      "target": 34962,
      "byteStride": 12
    },
    {
      "buffer": 0,
      "byteOffset": 316072,
      "byteLength": 192,
      "target": 34962,
      "byteStride": 8
    },
    {
      "buffer": 0,
      "byteOffset": 316264,
      "byteLength": 576,
      "target": 34962,
      "byteStride": 12
    },
    {
      "buffer": 0,
      "byteOffset": 316840,
      "byteLength": 576,
      "target": 34962,
      "byteStride": 12
    },
    {
      "buffer": 0,
      "byteOffset": 317416,
      "byteLength": 384,
      "target": 34962,
      "byteStride": 8
    },
    {
      "buffer": 0,
      "byteOffset": 317800,
      "byteLength": 168,
      "target": 34963
    },
    {
      "buffer": 0,
      "byteOffset": 317968,
      "byteLength": 4992,
      "target": 34962,
      "byteStride": 12
    },
    {
      "buffer": 0,
      "byteOffset": 322960,
      "byteLength": 4992,
      "target": 34962,
      "byteStride": 12
    },
    {
      "buffer": 0,
      "byteOffset": 327952,
      "byteLength": 3328,
      "target": 34962,
      "byteStride": 8
    },
    {
      "buffer": 0,
      "byteOffset": 331280,
      "byteLength": 1584,
      "target": 34963
    }
  ],
  "buffers": [
    {
      "byteLength": 332864,
      "uri": "data:application/octet-stream;base64,"
    }
  ],
  "accessors": [
    {
      "bufferView": 0,
      "componentType": 5126,
      "count": 88,
      "max": [
        0.000013634562492370605,
        0.4445107579231262,
        2.355943441390991
      ],
      "min": [
        -1.9999862909317017,
        -1.5369247198104858,
        -2.355943441390991
      ],
      "type": "VEC3"
    },
    {
      "bufferView": 1,
      "componentType": 5126,
      "count": 88,
      "max": [
        1,
        1,
        1
      ],
      "min": [
        -1,
        -1,
        -1
      ],
      "type": "VEC3"
    },
    {
      "bufferView": 2,
      "componentType": 5126,
      "count": 88,
      "max": [
        0.875,
        1
      ],
      "min": [
        0.125,
        0
      ],
      "type": "VEC2"
    },
    {
      "bufferView": 3,
      "componentType": 5123,
      "count": 132,
      "max": [
        87
      ],
      "min": [
        0
      ],
      "type": "SCALAR"
    },
    {
      "bufferView": 4,
      "componentType": 5126,
      "count": 88,
      "max": [
        0.000013634562492370605,
        0.44451063871383667,
        2.355943441390991
      ],
      "min": [
        -1.9999862909317017,
        -1.5369247198104858,
        -2.355943441390991
      ],
      "type": "VEC3"
    },
    {
      "bufferView": 5,
      "componentType": 5126,
      "count": 88,
      "max": [
        1,
        1,
        1
      ],
      "min": [
        -1,
        -1,
        -1
      ],
      "type": "VEC3"
    },
    {
      "bufferView": 6,
      "componentType": 5126,
      "count": 88,
      "max": [
        0.875,
        1
      ],
      "min": [
        0.125,
        0
      ],
      "type": "VEC2"
    },
    {
      "bufferView": 7,
      "componentType": 5126,
      "count": 88,
      "max": [
        0.000013634562492370605,
        0.44451063871383667,
        2.355943441390991
      ],
      "min": [
        -1.9999862909317017,
        -1.5369247198104858,
        -2.355943441390991
      ],
      "type": "VEC3"
    },
    {
      "bufferView": 8,
      "componentType": 5126,
      "count": 88,
      "max": [
        1,
        1,
        1
      ],
      "min": [
        -1,
        -1,
        -1
      ],
      "type": "VEC3"
    },
    {
      "bufferView": 9,
      "componentType": 5126,
      "count": 88,
      "max": [
        0.875,
        1
      ],
      "min": [
        0.125,
        0
      ],
      "type": "VEC2"
    },
    {
      "bufferView": 10,
      "componentType": 5126,
      "count": 192,
      "max": [
        1.0000008344650269,
        1.6876837015151978,
        2.4011127948760986
      ],
      "min": [
        -0.9999999403953552,
        -0.21657437086105347,
        -2.3843586444854736
      ],
      "type": "VEC3"
    },
    {
      "bufferView": 11,
      "componentType": 5126,
      "count": 192,
      "max": [
        1,
        1,
        1
      ],
      "min": [
        -1,
        -1,
        -1
      ],
      "type": "VEC3"
    },
    {
      "bufferView": 12,
      "componentType": 5126,
      "count": 192,
      "max": [
        0.875,
        1
      ],
      "min": [
        0.125,
        0
      ],
      "type": "VEC2"
    },
    {
      "bufferView": 13,
      "componentType": 5123,
      "count": 288,
      "max": [
        191
      ],
      "min": [
        0
      ],
      "type": "SCALAR"
    },
    {
      "bufferView": 14,
      "componentType": 5126,
      "count": 192,
      "max": [
        1.0000008344650269,
        1.6876837015151978,
        2.7173798084259033
      ],
      "min": [
        -0.9999998807907104,
        -0.21657437086105347,
        -2.6984190940856934
      ],
      "type": "VEC3"
    },
    {
      "bufferView": 15,
      "componentType": 5126,
      "count": 192,
      "max": [
        1,
        1,
        1
      ],
      "min": [
        -1,
        -1,
        -1
      ],
      "type": "VEC3"
    },
    {
      "bufferView": 16,
      "componentType": 5126,
      "count": 192,
      "max": [
        0.875,
        1
      ],
      "min": [
        0.125,
        0
      ],
      "type": "VEC2"
    },
    {
      "bufferView": 17,
      "componentType": 5126,
      "count": 192,
      "max": [
        0.9999999403953552,
        1.6876837015151978,
        2.4011125564575195
      ],
      "min": [
        -0.9999999403953552,
        -0.21657437086105347,
        -2.3843586444854736
      ],
      "type": "VEC3"
    },
    {
      "bufferView": 18,
      "componentType": 5126,
      "count": 192,
      "max": [
        1,
        1,
        1
      ],
      "min": [
        -1,
        -1,
        -1
      ],
      "type": "VEC3"
    },
    {
      "bufferView": 19,
      "componentType": 5126,
      "count": 192,
      "max": [
        0.875,
        1
      ],
      "min": [
        0.125,
        0
      ],
      "type": "VEC2"
    },
    {
      "bufferView": 20,
      "componentType": 5126,
      "count": 3395,
      "max": [
        1.7468205690383911,
        2.2225615978240967,
        0.8905470371246338
      ],
      "min": [
        -1.6998997926712036,
        -9.052312850952148,
        -0.9359257817268372
      ],
      "type": "VEC3"
    },
    {
      "bufferView": 21,
      "componentType": 5126,
      "count": 3395,
      "max": [
        1,
        1,
        1
      ],
      "min": [
        -1,
        -1,
        -1
      ],
      "type": "VEC3"
    },
    {
      "bufferView": 22,
      "componentType": 5126,
      "count": 3395,
      "max": [
        1,
        1
      ],
      "min": [
        0,
        0
      ],
      "type": "VEC2"
    },
    {
      "bufferView": 23,
      "componentType": 5123,
      "count": 8154,
      "max": [
        3394
      ],
      "min": [
        0
      ],
      "type": "SCALAR"
    },
    {
      "bufferView": 24,
      "componentType": 5126,
      "count": 1944,
      "max": [
        1.7544819116592407,
        1.754477620124817,
        -1.7306885719299316
      ],
      "min": [
        -1.754473328590393,
        -1.754477858543396,
        -2.007845878601074
      ],
      "type": "VEC3"
    },
    {
      "bufferView": 25,
      "componentType": 5126,
      "count": 1944,
      "max": [
        1,
        1,
        0.9904521703720093
      ],
      "min": [
        -1,
        -1,
        -1
      ],
      "type": "VEC3"
    },
    {
      "bufferView": 26,
      "componentType": 5126,
      "count": 1944,
      "max": [
        0.9999999403953552,
        0.9899441599845886
      ],
      "min": [
        0,
        0
      ],
      "type": "VEC2"
    },
    {
      "bufferView": 27,
      "componentType": 5123,
      "count": 5748,
      "max": [
        1943
      ],
      "min": [
        0
      ],
      "type": "SCALAR"
    },
    {
      "bufferView": 28,
      "componentType": 5126,
      "count": 96,
      "max": [
        0.999995768070221,
        0.5357479453086853,
        1.0008479356765747
      ],
      "min": [
        -1.0000041723251343,
        -1.5199170112609863,
        -0.9991520643234253
      ],
      "type": "VEC3"
    },
    {
      "bufferView": 29,
      "componentType": 5126,
      "count": 96,
      "max": [
        1,
        1,
        1
      ],
      "min": [
        -1,
        -1,
        -1
      ],
      "type": "VEC3"
    },
    {
      "bufferView": 30,
      "componentType": 5126,
      "count": 96,
      "max": [
        0.875,
        1
      ],
      "min": [
        0.125,
        0
      ],
      "type": "VEC2"
    },
    {
      "bufferView": 31,
      "componentType": 5123,
      "count": 156,
      "max": [
        95
      ],
      "min": [
        0
      ],
      "type": "SCALAR"
    },
    {
      "bufferView": 32,
      "componentType": 5126,
      "count": 196,
      "max": [
        0.3908833861351013,
        0.516014039516449,
        2.684476375579834
      ],
      "min": [
        -0.3908833861351013,
        -0.5160140991210938,
        -2.684476375579834
      ],
      "type": "VEC3"
    },
    {
      "bufferView": 33,
      "componentType": 5126,
      "count": 196,
      "max": [
        1,
        1,
        1
      ],
      "min": [
        -1,
        -1,
        -1
      ],
      "type": "VEC3"
    },
    {
      "bufferView": 34,
      "componentType": 5126,
      "count": 196,
      "max": [
        0.875,
        1
      ],
      "min": [
        0.125,
        0
      ],
      "type": "VEC2"
    },
    {
      "bufferView": 35,
      "componentType": 5123,
      "count": 420,
      "max": [
        195
      ],
      "min": [
        0
      ],
      "type": "SCALAR"
    },
    {
      "bufferView": 36,
      "componentType": 5126,
      "count": 392,
      "max": [
        0.37892669439315796,
        0.5160140991210938,
        1.8240270614624023
      ],
      "min": [
        -0.4028400778770447,
        -0.516014039516449,
        -1.91261887550354
      ],
      "type": "VEC3"
    },
    {
      "bufferView": 37,
      "componentType": 5126,
      "count": 392,
      "max": [
        1,
        1,
        1
      ],
      "min": [
        -1,
        -1,
        -1
      ],
      "type": "VEC3"
    },
    {
      "bufferView": 38,
      "componentType": 5126,
      "count": 392,
      "max": [
        0.875,
        1
      ],
      "min": [
        0.125,
        0
      ],
      "type": "VEC2"
    },
    {
      "bufferView": 39,
      "componentType": 5123,
      "count": 924,
      "max": [
        391
      ],
      "min": [
        0
      ],
      "type": "SCALAR"
    },
    {
      "bufferView": 40,
      "componentType": 5126,
      "count": 24,
      "max": [
        0.24225389957427979,
        0.516014039516449,
        0.1383504867553711
      ],
      "min": [
        -0.242253839969635,
        -0.5160140991210938,
        -0.1383504867553711
      ],
      "type": "VEC3"
    },
    {
      "bufferView": 41,
      "componentType": 5126,
      "count": 24,
      "max": [
        1,
        1,
        1
      ],
      "min": [
        -1,
        -1,
        -1
      ],
      "type": "VEC3"
    },
    {
      "bufferView": 42,
      "componentType": 5126,
      "count": 24,
      "max": [
        0.875,
        1
      ],
      "min": [
        0.125,
        0
      ],
      "type": "VEC2"
    },
    {
      "bufferView": 43,
      "componentType": 5123,
      "count": 36,
      "max": [
        23
      ],
      "min": [
        0
      ],
      "type": "SCALAR"
    },
    {
      "bufferView": 44,
      "componentType": 5126,
      "count": 44,
      "max": [
        1.4366483688354492,
        1,
        1
      ],
      "min": [
        -0.5633516311645508,
        -1,
        -1
      ],
      "type": "VEC3"
    },
    {
      "bufferView": 45,
      "componentType": 5126,
      "count": 44,
      "max": [
        1,
        1,
        1
      ],
      "min": [
        -1,
        -1,
        -1
      ],
      "type": "VEC3"
    },
    {
      "bufferView": 46,
      "componentType": 5126,
      "count": 44,
      "max": [
        0.875,
        1
      ],
      "min": [
        0.125,
        0
      ],
      "type": "VEC2"
    },
    {
      "bufferView": 47,
      "componentType": 5123,
      "count": 78,
      "max": [
        43
      ],
      "min": [
        0
      ],
      "type": "SCALAR"
    },
    {
      "bufferView": 48,
      "componentType": 5126,
      "count": 4,
      "max": [
        -0.30994486808776855,
        0.953970730304718,
        0.9676979780197144
      ],
      "min": [
        -0.30994486808776855,
        -0.953970730304718,
        -0.9676979780197144
      ],
      "type": "VEC3"
    },
    {
      "bufferView": 49,
      "componentType": 5126,
      "count": 4,
      "max": [
        -1,
        0,
        0
      ],
      "min": [
        -1,
        0,
        0
      ],
      "type": "VEC3"
    },
    {
      "bufferView": 50,
      "componentType": 5126,
      "count": 4,
      "max": [
        0.6227550506591797,
        0.9977551102638245
      ],
      "min": [
        0.37724488973617554,
        0.7522449493408203
      ],
      "type": "VEC2"
    },
    {
      "bufferView": 51,
      "componentType": 5123,
      "count": 6,
      "max": [
        3
      ],
      "min": [
        0
      ],
      "type": "SCALAR"
    },
    {
      "bufferView": 52,
      "componentType": 5126,
      "count": 560,
      "max": [
        1.6276990175247192,
        0.47850191593170166,
        1.0000004768371582
      ],
      "min": [
        -1.6276965141296387,
        -1.5214980840682983,
        -0.9999995827674866
      ],
      "type": "VEC3"
    },
    {
      "bufferView": 53,
      "componentType": 5126,
      "count": 560,
      "max": [
        1,
        1,
        1
      ],
      "min": [
        -1,
        -1,
        -1
      ],
      "type": "VEC3"
    },
    {
      "bufferView": 54,
      "componentType": 5126,
      "count": 560,
      "max": [
        1,
        1
      ],
      "min": [
        0,
        0
      ],
      "type": "VEC2"
    },
    {
      "bufferView": 55,
      "componentType": 5123,
      "count": 1236,
      "max": [
        559
      ],
      "min": [
        0
      ],
      "type": "SCALAR"
    },
    {
      "bufferView": 56,
      "componentType": 5126,
      "count": 658,
      "max": [
        1.2112609148025513,
        1.5528110265731812,
        1.3466966152191162
      ],
      "min": [
        -1.2142716646194458,
        -0.8852723836898804,
        -1.0465946197509766
      ],
      "type": "VEC3"
    },
    {
      "bufferView": 57,
      "componentType": 5126,
      "count": 658,
      "max": [
        1,
        1,
        1
      ],
      "min": [
        -1,
        -1,
        -1
      ],
      "type": "VEC3"
    },
    {
      "bufferView": 58,
      "componentType": 5126,
      "count": 658,
      "max": [
        0.875,
        1
      ],
      "min": [
        0.1249999925494194,
        -1.1920928955078125e-7
      ],
      "type": "VEC2"
    },
    {
      "bufferView": 59,
      "componentType": 5123,
      "count": 1227,
      "max": [
        657
      ],
      "min": [
        0
      ],
      "type": "SCALAR"
    },
    {
      "bufferView": 60,
      "componentType": 5126,
      "count": 66,
      "max": [
        1,
        1.3753435611724854,
        1.0364259481430054
      ],
      "min": [
        -1,
        -0.8534866571426392,
        -0.8419688940048218
      ],
      "type": "VEC3"
    },
    {
      "bufferView": 61,
      "componentType": 5126,
      "count": 66,
      "max": [
        1,
        1,
        1
      ],
      "min": [
        -1,
        -1,
        -1
      ],
      "type": "VEC3"
    },
    {
      "bufferView": 62,
      "componentType": 5126,
      "count": 66,
      "max": [
        0.875,
        1
      ],
      "min": [
        0.125,
        0
      ],
      "type": "VEC2"
    },
    {
      "bufferView": 63,
      "componentType": 5123,
      "count": 126,
      "max": [
        65
      ],
      "min": [
        0
      ],
      "type": "SCALAR"
    },
    {
      "bufferView": 64,
      "componentType": 5126,
      "count": 4,
      "max": [
        0.9235701560974121,
        1.2989137172698975,
        0.10530859977006912
      ],
      "min": [
        -0.9235701560974121,
        -0.06325588375329971,
        0.10530859977006912
      ],
      "type": "VEC3"
    },
    {
      "bufferView": 65,
      "componentType": 5126,
      "count": 4,
      "max": [
        0,
        0,
        1
      ],
      "min": [
        0,
        0,
        1
      ],
      "type": "VEC3"
    },
    {
      "bufferView": 66,
      "componentType": 5126,
      "count": 4,
      "max": [
        0.6154462695121765,
        0.2404463291168213
      ],
      "min": [
        0.44517508149147034,
        0.009553730487823486
      ],
      "type": "VEC2"
    },
    {
      "bufferView": 67,
      "componentType": 5123,
      "count": 6,
      "max": [
        3
      ],
      "min": [
        0
      ],
      "type": "SCALAR"
    },
    {
      "bufferView": 68,
      "componentType": 5126,
      "count": 130,
      "max": [
        1,
        0.04448885843157768,
        1.386145830154419
      ],
      "min": [
        -1,
        -0.04448883607983589,
        -1.34071683883667
      ],
      "type": "VEC3"
    },
    {
      "bufferView": 69,
      "componentType": 5126,
      "count": 130,
      "max": [
        0.9992509484291077,
        1,
        1
      ],
      "min": [
        -0.9992509484291077,
        -1,
        -1
      ],
      "type": "VEC3"
    },
    {
      "bufferView": 70,
      "componentType": 5126,
      "count": 130,
      "max": [
        1,
        0.9900000095367432
      ],
      "min": [
        0,
        0
      ],
      "type": "VEC2"
    },
    {
      "bufferView": 71,
      "componentType": 5123,
      "count": 372,
      "max": [
        129
      ],
      "min": [
        0
      ],
      "type": "SCALAR"
    },
    {
      "bufferView": 72,
      "componentType": 5126,
      "count": 48,
      "max": [
        0.54128098487854,
        1.6097931861877441,
        0.9999986886978149
      ],
      "min": [
        -1.4587209224700928,
        -1.6097931861877441,
        -1.0000011920928955
      ],
      "type": "VEC3"
    },
    {
      "bufferView": 73,
      "componentType": 5126,
      "count": 48,
      "max": [
        1,
        1,
        1
      ],
      "min": [
        -1,
        -1,
        -1
      ],
      "type": "VEC3"
    },
    {
      "bufferView": 74,
      "componentType": 5126,
      "count": 48,
      "max": [
        0.875,
        1
      ],
      "min": [
        0.125,
        0
      ],
      "type": "VEC2"
    },
    {
      "bufferView": 75,
      "componentType": 5123,
      "count": 84,
      "max": [
        47
      ],
      "min": [
        0
      ],
      "type": "SCALAR"
    },
    {
      "bufferView": 76,
      "componentType": 5126,
      "count": 48,
      "max": [
        1.4587209224700928,
        1.6097931861877441,
        0.9999999403953552
      ],
      "min": [
        -0.54128098487854,
        -1.6097931861877441,
        -0.9999999403953552
      ],
      "type": "VEC3"
    },
    {
      "bufferView": 77,
      "componentType": 5126,
      "count": 48,
      "max": [
        1,
        1,
        1
      ],
      "min": [
        -1,
        -1,
        -1
      ],
      "type": "VEC3"
    },
    {
      "bufferView": 78,
      "componentType": 5126,
      "count": 48,
      "max": [
        0.875,
        1
      ],
      "min": [
        0.125,
        0
      ],
      "type": "VEC2"
    },
    {
      "bufferView": 79,
      "componentType": 5123,
      "count": 84,
      "max": [
        47
      ],
      "min": [
        0
      ],
      "type": "SCALAR"
    },
    {
      "bufferView": 80,
      "componentType": 5126,
      "count": 24,
      "max": [
        18.17078971862793,
        1.5385849475860596,
        0.33053064346313477
      ],
      "min": [
        -18.17078971862793,
        -1.5385849475860596,
        -0.33053067326545715
      ],
      "type": "VEC3"
    },
    {
      "bufferView": 81,
      "componentType": 5126,
      "count": 24,
      "max": [
        1,
        1,
        1
      ],
      "min": [
        -1,
        -1,
        -1
      ],
      "type": "VEC3"
    },
    {
      "bufferView": 82,
      "componentType": 5126,
      "count": 24,
      "max": [
        0.6200864315032959,
        0.9920901656150818
      ],
      "min": [
        0.3799135386943817,
        0.2579098343849182
      ],
      "type": "VEC2"
    },
    {
      "bufferView": 83,
      "componentType": 5123,
      "count": 36,
      "max": [
        23
      ],
      "min": [
        0
      ],
      "type": "SCALAR"
    },
    {
      "bufferView": 84,
      "componentType": 5126,
      "count": 48,
      "max": [
        2.292929172515869,
        2.292606830596924,
        1.0809375047683716
      ],
      "min": [
        -2.292928695678711,
        -2.292607069015503,
        -1.0809375047683716
      ],
      "type": "VEC3"
    },
    {
      "bufferView": 85,
      "componentType": 5126,
      "count": 48,
      "max": [
        1,
        1,
        1
      ],
      "min": [
        -1,
        -1,
        -1
      ],
      "type": "VEC3"
    },
    {
      "bufferView": 86,
      "componentType": 5126,
      "count": 48,
      "max": [
        0.875,
        1
      ],
      "min": [
        0.125,
        0
      ],
      "type": "VEC2"
    },
    {
      "bufferView": 87,
      "componentType": 5123,
      "count": 96,
      "max": [
        47
      ],
      "min": [
        0
      ],
      "type": "SCALAR"
    },
    {
      "bufferView": 88,
      "componentType": 5126,
      "count": 24,
      "max": [
        1.1193817853927612,
        2.0542235374450684,
        0.9583410620689392
      ],
      "min": [
        -1.1193817853927612,
        -2.0542235374450684,
        -0.9805998802185059
      ],
      "type": "VEC3"
    },
    {
      "bufferView": 89,
      "componentType": 5126,
      "count": 24,
      "max": [
        0.9925054311752319,
        1,
        1
      ],
      "min": [
        -0.9925054311752319,
        -1,
        -1
      ],
      "type": "VEC3"
    },
    {
      "bufferView": 90,
      "componentType": 5126,
      "count": 24,
      "max": [
        0.875,
        1
      ],
      "min": [
        0.125,
        0
      ],
      "type": "VEC2"
    },
    {
      "bufferView": 91,
      "componentType": 5126,
      "count": 24,
      "max": [
        0.7966559529304504,
        0.0171363428235054,
        0.7966559529304504
      ],
      "min": [
        -0.7966559529304504,
        -0.0171363428235054,
        -0.7966559529304504
      ],
      "type": "VEC3"
    },
    {
      "bufferView": 92,
      "componentType": 5126,
      "count": 24,
      "max": [
        1,
        1,
        1
      ],
      "min": [
        -1,
        -1,
        -1
      ],
      "type": "VEC3"
    },
    {
      "bufferView": 93,
      "componentType": 5126,
      "count": 24,
      "max": [
        0.875,
        1
      ],
      "min": [
        0.125,
        0
      ],
      "type": "VEC2"
    },
    {
      "bufferView": 94,
      "componentType": 5123,
      "count": 36,
      "max": [
        23
      ],
      "min": [
        0
      ],
      "type": "SCALAR"
    },
    {
      "bufferView": 95,
      "componentType": 5126,
      "count": 78,
      "max": [
        0.24509869515895844,
        0.1826273500919342,
        0.19111904501914978
      ],
      "min": [
        -0.17440272867679596,
        -0.2368740737438202,
        -0.22838237881660461
      ],
      "type": "VEC3"
    },
    {
      "bufferView": 96,
      "componentType": 5126,
      "count": 78,
      "max": [
        1,
        1,
        1
      ],
      "min": [
        -1,
        -1,
        -1
      ],
      "type": "VEC3"
    },
    {
      "bufferView": 97,
      "componentType": 5126,
      "count": 78,
      "max": [
        0.875,
        1
      ],
      "min": [
        0.125,
        0
      ],
      "type": "VEC2"
    },
    {
      "bufferView": 98,
      "componentType": 5123,
      "count": 150,
      "max": [
        77
      ],
      "min": [
        0
      ],
      "type": "SCALAR"
    },
    {
      "bufferView": 99,
      "componentType": 5126,
      "count": 24,
      "max": [
        1,
        1,
        1
      ],
      "min": [
        -1,
        -1,
        -1
      ],
      "type": "VEC3"
    },
    {
      "bufferView": 100,
      "componentType": 5126,
      "count": 24,
      "max": [
        1,
        1,
        1
      ],
      "min": [
        -1,
        -1,
        -1
      ],
      "type": "VEC3"
    },
    {
      "bufferView": 101,
      "componentType": 5126,
      "count": 24,
      "max": [
        0.875,
        1
      ],
      "min": [
        0.125,
        0
      ],
      "type": "VEC2"
    },
    {
      "bufferView": 102,
      "componentType": 5126,
      "count": 48,
      "max": [
        1,
        2.7683095932006836,
        1
      ],
      "min": [
        -0.9143831729888916,
        -1,
        -4.648311614990234
      ],
      "type": "VEC3"
    },
    {
      "bufferView": 103,
      "componentType": 5126,
      "count": 48,
      "max": [
        1,
        1,
        1
      ],
      "min": [
        -1,
        -1,
        -1
      ],
      "type": "VEC3"
    },
    {
      "bufferView": 104,
      "componentType": 5126,
      "count": 48,
      "max": [
        0.875,
        1
      ],
      "min": [
        0.125,
        0
      ],
      "type": "VEC2"
    },
    {
      "bufferView": 105,
      "componentType": 5123,
      "count": 84,
      "max": [
        47
      ],
      "min": [
        0
      ],
      "type": "SCALAR"
    },
    {
      "bufferView": 106,
      "componentType": 5126,
      "count": 416,
      "max": [
        0.04540626332163811,
        0.15356825292110443,
        0.00034270621836185455
      ],
      "min": [
        0.02528969570994377,
        0.10968845337629318,
        -0.037606045603752136
      ],
      "type": "VEC3"
    },
    {
      "bufferView": 107,
      "componentType": 5126,
      "count": 416,
      "max": [
        1,
        1,
        1
      ],
      "min": [
        -1,
        -1,
        -1
      ],
      "type": "VEC3"
    },
    {
      "bufferView": 108,
      "componentType": 5126,
      "count": 416,
      "max": [
        1,
        1
      ],
      "min": [
        0,
        0
      ],
      "type": "VEC2"
    },
    {
      "bufferView": 109,
      "componentType": 5123,
      "count": 792,
      "max": [
        415
      ],
      "min": [
        0
      ],
      "type": "SCALAR"
    }
  ],
  "materials": [
    {
      "pbrMetallicRoughness": {
        "metallicFactor": 1,
        "roughnessFactor": 1
      }
    },
    {
      "pbrMetallicRoughness": {
        "baseColorFactor": [
          0.10090042650699615,
          0.10090042650699615,
          0.10090042650699615,
          1
        ],
        "metallicFactor": 0,
        "roughnessFactor": 0.5
      },
      "doubleSided": true,
      "name": "Material.001"
    },
    {
      "pbrMetallicRoughness": {
        "baseColorFactor": [
          0.800000011920929,
          0.800000011920929,
          0.800000011920929,
          1
        ],
        "metallicFactor": 0,
        "roughnessFactor": 0.5
      },
      "emissiveFactor": [
        1,
        1,
        1
      ],
      "doubleSided": true,
      "name": "Material.002",
      "extensions": {
        "KHR_materials_emissive_strength": {
          "emissiveStrength": 1.399999976158142
        }
      }
    },
    {
      "pbrMetallicRoughness": {
        "baseColorFactor": [
          0.800000011920929,
          0.800000011920929,
          0.800000011920929,
          1
        ],
        "metallicFactor": 0,
        "roughnessFactor": 0.5
      },
      "doubleSided": true,
      "name": "Material.003"
    },
    {
      "pbrMetallicRoughness": {
        "baseColorFactor": [
          0.800000011920929,
          0.800000011920929,
          0.800000011920929,
          1
        ],
        "metallicFactor": 0,
        "roughnessFactor": 0.5
      },
      "emissiveFactor": [
        0.057804432046149046,
        0.026240872517772074,
        0.9999999403953552
      ],
      "doubleSided": true,
      "name": "Material.005"
    },
    {
      "pbrMetallicRoughness": {
        "baseColorFactor": [
          0.8010168075561523,
          0.47243010997772217,
          0.004451078828424215,
          1
        ],
        "metallicFactor": 0,
        "roughnessFactor": 0.5
      },
      "doubleSided": true,
      "name": "Material.007"
    },
    {
      "pbrMetallicRoughness": {
        "baseColorFactor": [
          0.16438335180282593,
          0.8008996248245239,
          0.12924602627754211,
          1
        ],
        "metallicFactor": 0,
        "roughnessFactor": 0.5
      },
      "doubleSided": true,
      "name": "Material.006"
    },
    {
      "pbrMetallicRoughness": {
        "baseColorFactor": [
          0.09010404348373413,
          0.09010404348373413,
          0.09010404348373413,
          1
        ],
        "metallicFactor": 0,
        "roughnessFactor": 0.5
      },
      "doubleSided": true,
      "name": "Material.008"
    },
    {
      "pbrMetallicRoughness": {
        "baseColorFactor": [
          0.800000011920929,
          0.800000011920929,
          0.800000011920929,
          1
        ],
        "metallicFactor": 0,
        "roughnessFactor": 0.5
      },
      "doubleSided": true,
      "name": "Material"
    }
  ],
  "meshes": [
    {
      "primitives": [
        {
          "mode": 4,
          "attributes": {
            "POSITION": 0,
            "NORMAL": 1,
            "TEXCOORD_0": 2
          },
          "indices": 3,
          "material": 0
        }
      ]
    },
    {
      "primitives": [
        {
          "mode": 4,
          "attributes": {
            "POSITION": 4,
            "NORMAL": 5,
            "TEXCOORD_0": 6
          },
          "indices": 3,
          "material": 0
        }
      ]
    },
    {
      "primitives": [
        {
          "mode": 4,
          "attributes": {
            "POSITION": 7,
            "NORMAL": 8,
            "TEXCOORD_0": 9
          },
          "indices": 3,
          "material": 0
        }
      ]
    },
    {
      "primitives": [
        {
          "mode": 4,
          "attributes": {
            "POSITION": 10,
            "NORMAL": 11,
            "TEXCOORD_0": 12
          },
          "indices": 13,
          "material": 0
        }
      ]
    },
    {
      "primitives": [
        {
          "mode": 4,
          "attributes": {
            "POSITION": 14,
            "NORMAL": 15,
            "TEXCOORD_0": 16
          },
          "indices": 13,
          "material": 0
        }
      ]
    },
    {
      "primitives": [
        {
          "mode": 4,
          "attributes": {
            "POSITION": 17,
            "NORMAL": 18,
            "TEXCOORD_0": 19
          },
          "indices": 13,
          "material": 0
        }
      ]
    },
    {
      "primitives": [
        {
          "mode": 4,
          "attributes": {
            "POSITION": 20,
            "NORMAL": 21,
            "TEXCOORD_0": 22
          },
          "indices": 23,
          "material": 0
        }
      ]
    },
    {
      "primitives": [
        {
          "mode": 4,
          "attributes": {
            "POSITION": 24,
            "NORMAL": 25,
            "TEXCOORD_0": 26
          },
          "indices": 27,
          "material": 0
        }
      ]
    },
    {
      "primitives": [
        {
          "mode": 4,
          "attributes": {
            "POSITION": 28,
            "NORMAL": 29,
            "TEXCOORD_0": 30
          },
          "indices": 31,
          "material": 0
        }
      ]
    },
    {
      "primitives": [
        {
          "mode": 4,
          "attributes": {
            "POSITION": 32,
            "NORMAL": 33,
            "TEXCOORD_0": 34
          },
          "indices": 35,
          "material": 0
        }
      ]
    },
    {
      "primitives": [
        {
          "mode": 4,
          "attributes": {
            "POSITION": 36,
            "NORMAL": 37,
            "TEXCOORD_0": 38
          },
          "indices": 39,
          "material": 0
        }
      ]
    },
    {
      "primitives": [
        {
          "mode": 4,
          "attributes": {
            "POSITION": 40,
            "NORMAL": 41,
            "TEXCOORD_0": 42
          },
          "indices": 43,
          "material": 0
        }
      ]
    },
    {
      "primitives": [
        {
          "mode": 4,
          "attributes": {
            "POSITION": 44,
            "NORMAL": 45,
            "TEXCOORD_0": 46
          },
          "indices": 47,
          "material": 1
        }
      ]
    },
    {
      "primitives": [
        {
          "mode": 4,
          "attributes": {
            "POSITION": 48,
            "NORMAL": 49,
            "TEXCOORD_0": 50
          },
          "indices": 51,
          "material": 2
        }
      ]
    },
    {
      "primitives": [
        {
          "mode": 4,
          "attributes": {
            "POSITION": 52,
            "NORMAL": 53,
            "TEXCOORD_0": 54
          },
          "indices": 55,
          "material": 0
        }
      ]
    },
    {
      "primitives": [
        {
          "mode": 4,
          "attributes": {
            "POSITION": 56,
            "NORMAL": 57,
            "TEXCOORD_0": 58
          },
          "indices": 59,
          "material": 0
        }
      ]
    },
    {
      "primitives": [
        {
          "mode": 4,
          "attributes": {
            "POSITION": 60,
            "NORMAL": 61,
            "TEXCOORD_0": 62
          },
          "indices": 63,
          "material": 3
        }
      ]
    },
    {
      "primitives": [
        {
          "mode": 4,
          "attributes": {
            "POSITION": 64,
            "NORMAL": 65,
            "TEXCOORD_0": 66
          },
          "indices": 67,
          "material": 2
        }
      ]
    },
    {
      "primitives": [
        {
          "mode": 4,
          "attributes": {
            "POSITION": 68,
            "NORMAL": 69,
            "TEXCOORD_0": 70
          },
          "indices": 71,
          "material": 4
        }
      ]
    },
    {
      "primitives": [
        {
          "mode": 4,
          "attributes": {
            "POSITION": 72,
            "NORMAL": 73,
            "TEXCOORD_0": 74
          },
          "indices": 75,
          "material": 1
        }
      ]
    },
    {
      "primitives": [
        {
          "mode": 4,
          "attributes": {
            "POSITION": 76,
            "NORMAL": 77,
            "TEXCOORD_0": 78
          },
          "indices": 79,
          "material": 1
        }
      ]
    },
    {
      "primitives": [
        {
          "mode": 4,
          "attributes": {
            "POSITION": 80,
            "NORMAL": 81,
            "TEXCOORD_0": 82
          },
          "indices": 83,
          "material": 4
        }
      ]
    },
    {
      "primitives": [
        {
          "mode": 4,
          "attributes": {
            "POSITION": 84,
            "NORMAL": 85,
            "TEXCOORD_0": 86
          },
          "indices": 87,
          "material": 5
        }
      ]
    },
    {
      "primitives": [
        {
          "mode": 4,
          "attributes": {
            "POSITION": 88,
            "NORMAL": 89,
            "TEXCOORD_0": 90
          },
          "indices": 43,
          "material": 6
        }
      ]
    },
    {
      "primitives": [
        {
          "mode": 4,
          "attributes": {
            "POSITION": 91,
            "NORMAL": 92,
            "TEXCOORD_0": 93
          },
          "indices": 94,
          "material": 7
        }
      ]
    },
    {
      "primitives": [
        {
          "mode": 4,
          "attributes": {
            "POSITION": 95,
            "NORMAL": 96,
            "TEXCOORD_0": 97
          },
          "indices": 98,
          "material": 8
        }
      ]
    },
    {
      "primitives": [
        {
          "mode": 4,
          "attributes": {
            "POSITION": 99,
            "NORMAL": 100,
            "TEXCOORD_0": 101
          },
          "indices": 43,
          "material": 7
        }
      ]
    },
    {
      "primitives": [
        {
          "mode": 4,
          "attributes": {
            "POSITION": 102,
            "NORMAL": 103,
            "TEXCOORD_0": 104
          },
          "indices": 105,
          "material": 0
        }
      ]
    },
    {
      "primitives": [
        {
          "mode": 4,
          "attributes": {
            "POSITION": 106,
            "NORMAL": 107,
            "TEXCOORD_0": 108
          },
          "indices": 109,
          "material": 8
        }
      ]
    }
  ],
  "extensions": {
    "KHR_lights_punctual": {
      "lights": [
        {
          "name": "Point",
          "color": [
            1,
            1,
            1
          ],
          "intensity": 5,
          "type": "point"
        },
        {
          "name": "Point001",
          "color": [
            1,
            1,
            1
          ],
          "intensity": 5,
          "type": "point"
        },
        {
          "name": "Point002",
          "color": [
            1,
            1,
            1
          ],
          "intensity": 5,
          "type": "point"
        },
        {
          "name": "Point003",
          "color": [
            1,
            1,
            1
          ],
          "intensity": 5,
          "type": "point"
        },
        {
          "name": "Light001",
          "color": [
            1,
            1,
            1
          ],
          "intensity": 1.62,
          "type": "point"
        }
      ]
    }
  },
  "cameras": [
    {
      "type": "perspective",
      "perspective": {
        "aspectRatio": 1.71960569550931,
        "yfov": 0.9115854683166382,
        "zfar": 100,
        "znear": 0.10000000149011612
      },
      "name": "PerspectiveCamera"
    }
  ],
  "extensionsUsed": [
    "KHR_lights_punctual",
    "KHR_materials_emissive_strength"
  ]
}